<svg width="32" height="32" viewBox="0 0 32 32" fill="none" xmlns="http://www.w3.org/2000/svg">
  <!-- Simplified tangerine slice for favicon -->
  <defs>
    <linearGradient id="tangerineGradient" x1="0%" y1="0%" x2="100%" y2="100%">
      <stop offset="0%" style="stop-color:#FF8C42;stop-opacity:1" />
      <stop offset="100%" style="stop-color:#E67635;stop-opacity:1" />
    </linearGradient>
  </defs>
  
  <!-- Main tangerine circle -->
  <circle cx="16" cy="16" r="14" fill="url(#tangerineGradient)"/>
  
  <!-- Simple segments -->
  <path d="M16 2 L26 8 L24 16 L16 14 Z" fill="#FFD4A3" opacity="0.6"/>
  <path d="M26 8 L30 16 L26 24 L24 16 Z" fill="#FFD4A3" opacity="0.5"/>
  <path d="M30 16 L26 24 L16 30 L16 24 Z" fill="#FFD4A3" opacity="0.4"/>
  <path d="M16 30 L6 24 L8 16 L16 24 Z" fill="#FFD4A3" opacity="0.5"/>
  <path d="M6 24 L2 16 L6 8 L8 16 Z" fill="#FFD4A3" opacity="0.6"/>
  <path d="M2 16 L6 8 L16 2 L16 8 Z" fill="#FFD4A3" opacity="0.7"/>
  
  <!-- Center dot -->
  <circle cx="16" cy="16" r="2" fill="#1A1A1A" opacity="0.4"/>
</svg>
