<svg width="64" height="64" viewBox="0 0 64 64" fill="none" xmlns="http://www.w3.org/2000/svg">
  <!-- Tangerine slice with geometric segments -->
  <defs>
    <linearGradient id="tangerineGradient" x1="0%" y1="0%" x2="100%" y2="100%">
      <stop offset="0%" style="stop-color:#FF8C42;stop-opacity:1" />
      <stop offset="50%" style="stop-color:#FF6B35;stop-opacity:1" />
      <stop offset="100%" style="stop-color:#E67635;stop-opacity:1" />
    </linearGradient>
    <linearGradient id="segmentGradient" x1="0%" y1="0%" x2="100%" y2="100%">
      <stop offset="0%" style="stop-color:#FFD4A3;stop-opacity:0.8" />
      <stop offset="100%" style="stop-color:#FF8C42;stop-opacity:0.6" />
    </linearGradient>
  </defs>
  
  <!-- Main tangerine circle -->
  <circle cx="32" cy="32" r="28" fill="url(#tangerineGradient)" stroke="#E67635" stroke-width="2"/>
  
  <!-- Geometric segments representing liquidity pools -->
  <!-- Segment 1 -->
  <path d="M32 4 L48 16 L44 32 L32 28 Z" fill="url(#segmentGradient)" opacity="0.7"/>
  
  <!-- Segment 2 -->
  <path d="M48 16 L60 32 L48 48 L44 32 Z" fill="url(#segmentGradient)" opacity="0.6"/>
  
  <!-- Segment 3 -->
  <path d="M60 32 L48 48 L32 60 L32 44 Z" fill="url(#segmentGradient)" opacity="0.5"/>
  
  <!-- Segment 4 -->
  <path d="M32 60 L16 48 L20 32 L32 44 Z" fill="url(#segmentGradient)" opacity="0.6"/>
  
  <!-- Segment 5 -->
  <path d="M16 48 L4 32 L16 16 L20 32 Z" fill="url(#segmentGradient)" opacity="0.7"/>
  
  <!-- Segment 6 -->
  <path d="M4 32 L16 16 L32 4 L32 20 Z" fill="url(#segmentGradient)" opacity="0.8"/>
  
  <!-- Center dot -->
  <circle cx="32" cy="32" r="4" fill="#1A1A1A" opacity="0.3"/>
  
  <!-- Highlight -->
  <ellipse cx="24" cy="24" rx="8" ry="12" fill="#FFFFFF" opacity="0.2"/>
</svg>


